<?xml version="1.0" encoding="UTF-8" standalone="no"?>
<svg width="200px" height="46px" viewBox="0 0 200 46" version="1.1" xmlns="http://www.w3.org/2000/svg" xmlns:xlink="http://www.w3.org/1999/xlink">
    <!-- Generator: Sketch 40.3 (33839) - http://www.bohemiancoding.com/sketch -->
    <title>Group 52</title>
    <desc>Created with Sketch.</desc>
    <defs></defs>
    <g id="GLOBAL-HEADER---CONSUMER" stroke="none" stroke-width="1" fill="none" fill-rule="evenodd">
        <g id="TRR-LOGOS" transform="translate(-620.000000, -666.000000)" fill="#222222">
            <g id="Group-52" transform="translate(620.000000, 666.000000)">
                <g id="Group-50">
                    <path d="M12.4238806,5.07223881 C12.4238806,3.73970149 12.4238806,3.69671642 11.1343284,3.69671642 L8.33970149,3.69671642 C6.49134328,3.69671642 4.12656716,3.78268657 3.0519403,4.77134328 C2.02029851,5.71701493 1.59044776,6.66328358 1.11761194,7.73791045 C0.773731343,7.9958209 0.171940299,7.78089552 0,7.43701493 C0.687761194,5.50268657 1.33253731,2.75104478 1.63343284,1.03164179 C1.76238806,0.945671642 2.32119403,0.902686567 2.45014925,1.03164179 C2.7080597,2.40716418 4.12656716,2.3641791 6.10447761,2.3641791 L23.9444776,2.3641791 C26.3086567,2.3641791 27.1259701,2.28059701 27.1259701,1.76238806 L27.1259701,1.16059701 L30.0059701,0 C30.1779104,0 30.3498507,0.0859701493 30.4358209,0.257910448 C30.3928358,1.54746269 30.3068657,3.69671642 30.3068657,5.58865672 L30.3068657,14.6161194 C30.3068657,15.0029851 30.3498507,15.3468657 30.478806,15.4328358 C32.0262687,14.2292537 34.0901493,13.1976119 36.2823881,13.1976119 C40.3659701,13.1976119 41.8280597,15.7337313 41.8280597,18.7426866 L41.8280597,25.9223881 C41.8280597,29.0173134 41.9140299,29.4901493 43.4614925,29.6620896 L44.6220896,29.7910448 C44.9229851,30.0059701 44.8370149,30.7367164 44.5361194,30.8656716 C42.9886567,30.7797015 41.7414925,30.7367164 40.2370149,30.7367164 C38.6895522,30.7367164 37.4,30.7797015 36.239403,30.8656716 C35.9385075,30.7367164 35.8525373,30.0059701 36.1534328,29.7910448 L37.0131343,29.6620896 C38.6035821,29.4041791 38.6465672,29.0173134 38.6465672,25.9223881 L38.6465672,19.7743284 C38.6465672,17.0232836 37.3140299,15.1749254 34.5629851,15.1749254 C33.1008955,15.1749254 31.9832836,15.6907463 31.2095522,16.3355224 C30.4358209,16.9802985 30.3068657,17.1952239 30.3068657,18.7002985 L30.3068657,25.9223881 C30.3068657,29.0173134 30.3928358,29.4471642 31.9402985,29.6620896 L32.8429851,29.7910448 C33.1444776,29.9629851 33.0585075,30.7367164 32.7576119,30.8656716 C31.4674627,30.7797015 30.2208955,30.7367164 28.7164179,30.7367164 C27.1689552,30.7367164 25.879403,30.7797015 24.5032836,30.8656716 C24.2023881,30.7367164 24.1164179,30.0059701 24.4179104,29.7910448 L25.4919403,29.6620896 C27.0829851,29.4901493 27.1259701,29.0173134 27.1259701,25.9223881 L27.1259701,6.70626866 C27.1259701,3.99761194 26.1367164,3.69671642 21.1074627,3.69671642 L17.1952239,3.69671642 C15.9056716,3.69671642 15.9486567,3.73970149 15.9486567,5.15820896 L15.9486567,24.2883582 C15.9486567,28.8023881 16.0346269,29.4471642 18.5277612,29.6620896 L19.9032836,29.7910448 C20.161791,29.9629851 20.0752239,30.7367164 19.8173134,30.8656716 C17.3671642,30.7797015 15.9056716,30.7367164 14.1862687,30.7367164 C12.4662687,30.7367164 10.961791,30.7797015 8.21074627,30.8656716 C7.95283582,30.7367164 7.86686567,30.0059701 8.21074627,29.7910448 L9.75820896,29.6620896 C12.2083582,29.4471642 12.4238806,28.8023881 12.4238806,24.2883582 L12.4238806,5.07223881" id="Fill-1"></path>
                    <path d="M51.5253731,18.3785075 C54.7068657,18.3785075 55.6525373,18.2065672 55.9964179,17.9486567 C56.1253731,17.8626866 56.2543284,17.6907463 56.2543284,17.1319403 C56.2543284,15.9283582 55.4376119,14.4238806 52.9438806,14.4238806 C50.4077612,14.4238806 48.2155224,16.7450746 48.1719403,18.1641791 C48.1719403,18.2501493 48.1719403,18.3785075 48.4734328,18.3785075 L51.5253731,18.3785075 L51.5253731,18.3785075 Z M48.8602985,19.6686567 C47.7426866,19.6686567 47.6991045,19.7546269 47.6991045,20.8292537 C47.6991045,25.1707463 50.2358209,28.8680597 54.8352239,28.8680597 C56.2543284,28.8680597 57.4579104,28.438209 58.7904478,26.761194 C59.2202985,26.6328358 59.521194,26.8907463 59.5641791,27.2776119 C58.1456716,30.200597 55.0501493,31.2752239 52.8149254,31.2752239 C50.0208955,31.2752239 47.8286567,30.0716418 46.5814925,28.438209 C45.2919403,26.761194 44.7761194,24.7408955 44.7761194,22.8495522 C44.7761194,17.561791 48.2579104,13.1343284 53.4167164,13.1343284 C57.1140299,13.1343284 59.521194,15.6704478 59.521194,18.2501493 C59.521194,18.8513433 59.4352239,19.1958209 59.3492537,19.3677612 C59.2202985,19.6256716 58.6185075,19.6686567 56.8131343,19.6686567 L48.8602985,19.6686567 L48.8602985,19.6686567 Z" id="Fill-2"></path>
                    <path d="M71.8124417,15.1558209 C71.8124417,15.9295522 71.8124417,16.4023881 71.941397,16.5743284 C72.0703522,16.7032836 72.7151283,16.7892537 74.9079641,16.7892537 C76.4554268,16.7892537 78.0888597,16.6173134 79.3354268,15.6716418 C80.4966208,14.7689552 81.4852776,13.2644776 81.4852776,10.3408955 C81.4852776,6.94507463 79.3784119,3.72059701 74.6070686,3.72059701 C71.941397,3.72059701 71.8124417,3.89253731 71.8124417,5.0961194 L71.8124417,15.1558209 L71.8124417,15.1558209 Z M68.2876656,9.00835821 C68.2876656,4.9241791 68.1587104,4.19343284 66.3957253,3.97850746 L65.0202029,3.80656716 C64.7193074,3.59164179 64.7193074,2.9038806 65.063188,2.7319403 C67.4709492,2.51701493 70.4369194,2.3880597 74.6500537,2.3880597 C77.3151283,2.3880597 79.8512477,2.60298507 81.8291582,3.67761194 C83.8924417,4.75223881 85.3975164,6.68716418 85.3975164,9.6961194 C85.3975164,13.7797015 82.1730388,16.0155224 80.023785,16.8752239 C79.8088597,17.1331343 80.023785,17.5629851 80.2381134,17.9068657 C83.6775164,23.4525373 85.9563223,26.8913433 88.8793074,29.3420896 C89.6100537,29.9868657 90.6846805,30.4597015 91.8452776,30.5456716 C92.0602029,30.6316418 92.103188,30.9755224 91.8882626,31.1474627 C91.501397,31.2764179 90.8136358,31.3623881 89.9969194,31.3623881 C86.343188,31.3623881 84.1503522,30.2877612 81.0984119,25.9456716 C79.9807999,24.3552239 78.2178149,21.3886567 76.8852776,19.4543284 C76.2405014,18.5086567 75.5527402,18.078806 73.8327402,18.078806 C71.8984119,18.078806 71.8124417,18.121791 71.8124417,19.0244776 L71.8124417,24.441194 C71.8124417,28.9552239 71.8984119,29.4710448 74.3921432,29.8149254 L75.2948298,29.9438806 C75.5527402,30.158806 75.4667701,30.8895522 75.2088597,31.0185075 C73.2739343,30.9325373 71.8124417,30.8895522 70.0930388,30.8895522 C68.2876656,30.8895522 66.7402029,30.9325373 64.7193074,31.0185075 C64.461397,30.8895522 64.3754268,30.2447761 64.6333373,29.9438806 L65.7085611,29.8149254 C68.2016955,29.5140299 68.2876656,28.9552239 68.2876656,24.441194 L68.2876656,9.00835821 L68.2876656,9.00835821 Z" id="Fill-3"></path>
                    <path d="M111.690149,29.3408955 C112.549851,29.3408955 113.882985,28.6955224 114.312836,28.2662687 C114.828657,27.7504478 114.828657,27.1486567 114.871642,26.2453731 L114.957612,23.7092537 C114.957612,23.2364179 114.785672,23.1504478 114.527761,23.1504478 C114.269851,23.1504478 113.539104,23.3223881 112.765373,23.5802985 C110.228657,24.44 108.98209,25.0847761 108.98209,26.761194 C108.98209,27.4919403 109.49791,29.3408955 111.690149,29.3408955 L111.690149,29.3408955 Z M114.355821,21.7749254 C115.000597,21.56 115.086567,21.1725373 115.086567,20.5277612 L115.129552,18.5504478 C115.172537,16.96 114.656716,14.8107463 111.991045,14.8107463 C110.787463,14.8107463 109.32597,15.4125373 109.24,16.7450746 C109.197015,17.4328358 109.15403,17.9486567 108.810149,18.2065672 C108.165373,18.7223881 107.004776,19.0232836 106.36,19.0232836 C105.973134,19.0232836 105.757612,18.8083582 105.757612,18.4214925 C105.757612,16.1862687 110.615522,13.1343284 113.75403,13.1343284 C116.848955,13.1343284 118.353433,14.9397015 118.224478,18.1635821 L117.966567,25.6435821 C117.880597,27.6214925 118.267463,29.3838806 119.944478,29.3838806 C120.374328,29.3838806 120.761194,29.2549254 121.019104,29.1259701 C121.23403,28.9970149 121.448955,28.8250746 121.57791,28.8250746 C121.749851,28.8250746 121.878806,29.0829851 121.878806,29.3838806 C121.878806,29.598806 120.374328,31.2752239 118.267463,31.2752239 C117.235821,31.2752239 116.204179,30.8883582 115.473433,29.9426866 C115.301493,29.6847761 115.043582,29.3408955 114.785672,29.3408955 C114.484776,29.3408955 113.968955,29.7277612 113.108657,30.200597 C112.162985,30.7164179 111.217313,31.2752239 110.013731,31.2752239 C108.767164,31.2752239 107.735522,30.9313433 107.004776,30.2865672 C106.18806,29.5558209 105.671642,28.481194 105.671642,27.2776119 C105.671642,25.600597 106.488358,24.6119403 109.24,23.6232836 L114.355821,21.7749254 L114.355821,21.7749254 Z" id="Fill-4"></path>
                    <path d="M128.378873,25.921791 C128.378873,29.0173134 128.464843,29.4471642 130.012306,29.6620896 L131.043948,29.7910448 C131.344843,30.0059701 131.258873,30.7367164 130.957978,30.8656716 C129.53947,30.7797015 128.292903,30.7367164 126.788425,30.7367164 C125.240366,30.7367164 123.950813,30.7797015 122.661261,30.8656716 C122.360366,30.7367164 122.274395,30.0059701 122.575291,29.7910448 L123.563948,29.6620896 C125.154395,29.4471642 125.197381,29.0173134 125.197381,25.921791 L125.197381,6.49134328 C125.197381,3.95462687 125.154395,3.69671642 123.864843,2.92298507 L123.434992,2.66507463 C123.220067,2.5361194 123.220067,1.93432836 123.434992,1.80537313 C124.509619,1.46149254 126.529918,0.816716418 128.077978,0 C128.249918,0 128.421261,0.0859701493 128.507231,0.257910448 C128.464843,1.54746269 128.378873,3.69671642 128.378873,5.58865672 L128.378873,25.921791" id="Fill-5"></path>
                    <path d="M96.3014925,18.3791045 C99.4829851,18.3791045 100.428657,18.2071642 100.772537,17.9492537 C100.901493,17.8632836 101.030448,17.6913433 101.030448,17.1325373 C101.030448,15.9289552 100.213731,14.4244776 97.72,14.4244776 C95.1838806,14.4244776 92.9916418,16.7456716 92.9480597,18.1641791 C92.9480597,18.2501493 92.9480597,18.3791045 93.2495522,18.3791045 L96.3014925,18.3791045 L96.3014925,18.3791045 Z M93.6364179,19.6686567 C92.518806,19.6686567 92.4752239,19.7546269 92.4752239,20.8298507 C92.4752239,25.1713433 95.0119403,28.8686567 99.6113433,28.8686567 C101.030448,28.8686567 102.23403,28.438806 103.566567,26.761791 C103.996418,26.6328358 104.297313,26.8907463 104.340299,27.2776119 C102.921791,30.201194 99.8262687,31.2758209 97.5910448,31.2758209 C94.7970149,31.2758209 92.6047761,30.0722388 91.3576119,28.438806 C90.0680597,26.761791 89.5522388,24.7414925 89.5522388,22.8501493 C89.5522388,17.5623881 93.0340299,13.1343284 98.1928358,13.1343284 C101.890149,13.1343284 104.297313,15.6710448 104.297313,18.2501493 C104.297313,18.8519403 104.211343,19.1958209 104.125373,19.3677612 C103.996418,19.6262687 103.394627,19.6686567 101.589254,19.6686567 L93.6364179,19.6686567 L93.6364179,19.6686567 Z" id="Fill-6"></path>
                    <path d="M140.469158,15.1558209 C140.469158,15.9295522 140.469158,16.4023881 140.59871,16.5743284 C140.727069,16.7032836 141.371845,16.7892537 143.564681,16.7892537 C145.112143,16.7892537 146.745576,16.6173134 147.992143,15.6716418 C149.153337,14.7689552 150.141994,13.2644776 150.141994,10.3408955 C150.141994,6.94507463 148.035725,3.72059701 143.263785,3.72059701 C140.59871,3.72059701 140.469158,3.89253731 140.469158,5.0961194 L140.469158,15.1558209 L140.469158,15.1558209 Z M136.944382,9.00835821 C136.944382,4.9241791 136.815427,4.19343284 135.052442,3.97850746 L133.676919,3.80656716 C133.376024,3.59164179 133.376024,2.9038806 133.720501,2.7319403 C136.127666,2.51701493 139.093636,2.3880597 143.30677,2.3880597 C145.971845,2.3880597 148.508561,2.60298507 150.485875,3.67761194 C152.549158,4.75223881 154.054233,6.68716418 154.054233,9.6961194 C154.054233,13.7797015 150.829755,16.0155224 148.680501,16.8752239 C148.465576,17.1331343 148.680501,17.5629851 148.895427,17.9068657 C152.334233,23.4525373 154.613039,26.8913433 157.536024,29.3420896 C158.26677,29.9868657 159.341397,30.4597015 160.501994,30.5456716 C160.716919,30.6316418 160.760501,30.9755224 160.544979,31.1474627 C160.158113,31.2764179 159.470352,31.3623881 158.653636,31.3623881 C154.999904,31.3623881 152.807069,30.2877612 149.755128,25.9456716 C148.637516,24.3552239 146.874531,21.3886567 145.541994,19.4543284 C144.897218,18.5086567 144.209457,18.078806 142.490054,18.078806 C140.555128,18.078806 140.469158,18.121791 140.469158,19.0244776 L140.469158,24.441194 C140.469158,28.9552239 140.555128,29.4710448 143.04886,29.8149254 L143.951546,29.9438806 C144.209457,30.158806 144.123487,30.8895522 143.865576,31.0185075 C141.930651,30.9325373 140.469158,30.8895522 138.749755,30.8895522 C136.944382,30.8895522 135.396919,30.9325373 133.376024,31.0185075 C133.118113,30.8895522 133.032143,30.2447761 133.290054,29.9438806 L134.365278,29.8149254 C136.858412,29.5140299 136.944382,28.9552239 136.944382,24.441194 L136.944382,9.00835821 L136.944382,9.00835821 Z" id="Fill-7"></path>
                    <path d="M180.346866,29.3408955 C181.206567,29.3408955 182.539701,28.6955224 182.969552,28.2662687 C183.485373,27.7504478 183.485373,27.1486567 183.528358,26.2453731 L183.614328,23.7092537 C183.614328,23.2364179 183.442388,23.1504478 183.184478,23.1504478 C182.926567,23.1504478 182.195821,23.3223881 181.42209,23.5802985 C178.885373,24.44 177.638806,25.0847761 177.638806,26.761194 C177.638806,27.4919403 178.154627,29.3408955 180.346866,29.3408955 L180.346866,29.3408955 Z M183.012537,21.7749254 C183.657313,21.56 183.743284,21.1725373 183.743284,20.5277612 L183.786269,18.5504478 C183.829254,16.96 183.313433,14.8107463 180.647761,14.8107463 C179.444179,14.8107463 177.982687,15.4125373 177.896716,16.7450746 C177.853731,17.4328358 177.810746,17.9486567 177.466866,18.2065672 C176.82209,18.7223881 175.661493,19.0232836 175.016716,19.0232836 C174.629851,19.0232836 174.414328,18.8083582 174.414328,18.4214925 C174.414328,16.1862687 179.272239,13.1343284 182.410746,13.1343284 C185.505672,13.1343284 187.010149,14.9397015 186.881194,18.1635821 L186.623284,25.6435821 C186.537313,27.6214925 186.924179,29.3838806 188.601194,29.3838806 C189.031045,29.3838806 189.41791,29.2549254 189.675821,29.1259701 C189.890746,28.9970149 190.105672,28.8250746 190.234627,28.8250746 C190.406567,28.8250746 190.535522,29.0829851 190.535522,29.3838806 C190.535522,29.598806 189.031045,31.2752239 186.924179,31.2752239 C185.892537,31.2752239 184.860896,30.8883582 184.130149,29.9426866 C183.958209,29.6847761 183.700299,29.3408955 183.442388,29.3408955 C183.141493,29.3408955 182.625672,29.7277612 181.765373,30.200597 C180.819701,30.7164179 179.87403,31.2752239 178.670448,31.2752239 C177.423881,31.2752239 176.392239,30.9313433 175.661493,30.2865672 C174.844776,29.5558209 174.328358,28.481194 174.328358,27.2776119 C174.328358,25.600597 175.145075,24.6119403 177.896716,23.6232836 L183.012537,21.7749254 L183.012537,21.7749254 Z" id="Fill-8"></path>
                    <path d="M197.03559,25.921791 C197.03559,29.0173134 197.12156,29.4471642 198.669022,29.6620896 L199.700664,29.7910448 C200.00156,30.0059701 199.91559,30.7367164 199.614694,30.8656716 C198.196187,30.7797015 196.949619,30.7367164 195.445142,30.7367164 C193.897082,30.7367164 192.60753,30.7797015 191.317978,30.8656716 C191.017082,30.7367164 190.931112,30.0059701 191.232007,29.7910448 L192.220664,29.6620896 C193.811112,29.4471642 193.854097,29.0173134 193.854097,25.921791 L193.854097,6.49134328 C193.854097,3.95462687 193.811112,3.69671642 192.52156,2.92298507 L192.091709,2.66507463 C191.876784,2.5361194 191.876784,1.93432836 192.091709,1.80537313 C193.166336,1.46149254 195.187231,0.816716418 196.734694,0 C196.906634,0 197.078575,0.0859701493 197.164545,0.257910448 C197.12156,1.54746269 197.03559,3.69671642 197.03559,5.58865672 L197.03559,25.921791" id="Fill-9"></path>
                    <path d="M164.958209,18.3791045 C168.139701,18.3791045 169.085373,18.2071642 169.429254,17.9492537 C169.558209,17.8632836 169.687164,17.6913433 169.687164,17.1325373 C169.687164,15.9289552 168.870448,14.4244776 166.376716,14.4244776 C163.840597,14.4244776 161.648358,16.7456716 161.604776,18.1641791 C161.604776,18.2501493 161.604776,18.3791045 161.906269,18.3791045 L164.958209,18.3791045 L164.958209,18.3791045 Z M162.293134,19.6686567 C161.175522,19.6686567 161.13194,19.7546269 161.13194,20.8298507 C161.13194,25.1713433 163.668657,28.8686567 168.268657,28.8686567 C169.687164,28.8686567 170.890746,28.438806 172.223284,26.761791 C172.653134,26.6328358 172.95403,26.8907463 172.997015,27.2776119 C171.578507,30.201194 168.482985,31.2758209 166.247761,31.2758209 C163.453731,31.2758209 161.261493,30.0722388 160.014328,28.438806 C158.724776,26.761791 158.208955,24.7414925 158.208955,22.8501493 C158.208955,17.5623881 161.690746,13.1343284 166.850149,13.1343284 C170.546866,13.1343284 172.95403,15.6710448 172.95403,18.2501493 C172.95403,18.8519403 172.86806,19.1958209 172.78209,19.3677612 C172.653134,19.6262687 172.051343,19.6686567 170.24597,19.6686567 L162.293134,19.6686567 L162.293134,19.6686567 Z" id="Fill-10"></path>
                    <path d="M11.8543284,42.6680597 L10.6268657,39.4113433 L9.35402985,42.6680597 L11.8543284,42.6680597 L11.8543284,42.6680597 Z M10.9916418,38.8059701 L13.4829851,45.159403 L12.8334328,45.159403 L12.0591045,43.1838806 L9.16716418,43.1838806 L8.40179104,45.159403 L7.76119403,45.159403 L10.3152239,38.8059701 L10.9916418,38.8059701 L10.9916418,38.8059701 Z" id="Fill-11" stroke="#222222" stroke-width="0.2"></path>
                    <path d="M15.5307463,38.8059701 L15.5307463,42.7391045 C15.5307463,43.1068657 15.5719403,43.4197015 15.6555224,43.678209 C15.7385075,43.9361194 15.8602985,44.1462687 16.0197015,44.3098507 C16.1802985,44.4728358 16.3761194,44.5916418 16.6077612,44.6656716 C16.838806,44.7402985 17.0997015,44.7767164 17.3904478,44.7767164 C17.6865672,44.7767164 17.9510448,44.7402985 18.1820896,44.6656716 C18.4137313,44.5916418 18.6095522,44.4728358 18.7695522,44.3098507 C18.9295522,44.1462687 19.0513433,43.9361194 19.1343284,43.678209 C19.2179104,43.4197015 19.2591045,43.1068657 19.2591045,42.7391045 L19.2591045,38.8059701 L19.8644776,38.8059701 L19.8644776,42.8728358 C19.8644776,43.198806 19.8185075,43.5092537 19.7259701,43.8023881 C19.6340299,44.0961194 19.4889552,44.3528358 19.2901493,44.5719403 C19.0913433,44.7916418 18.8364179,44.9653731 18.5253731,45.0925373 C18.2137313,45.2202985 17.8352239,45.2841791 17.3904478,45.2841791 C16.9516418,45.2841791 16.5761194,45.2202985 16.2650746,45.0925373 C15.9534328,44.9653731 15.6979104,44.7916418 15.4997015,44.5719403 C15.3002985,44.3528358 15.1552239,44.0961194 15.0638806,43.8023881 C14.9719403,43.5092537 14.9253731,43.198806 14.9253731,42.8728358 L14.9253731,38.8059701 L15.5307463,38.8059701" id="Fill-12" stroke="#222222" stroke-width="0.2"></path>
                    <polyline id="Fill-13" stroke="#222222" stroke-width="0.2" points="25.9229851 38.8059701 25.9229851 39.3223881 23.7074627 39.3223881 23.7074627 45.159403 23.1020896 45.159403 23.1020896 39.3223881 20.8955224 39.3223881 20.8955224 38.8059701 25.9229851 38.8059701"></polyline>
                    <polyline id="Fill-14" stroke="#222222" stroke-width="0.2" points="27.4710448 38.8059701 27.4710448 41.5647761 31.2435821 41.5647761 31.2435821 38.8059701 31.8489552 38.8059701 31.8489552 45.159403 31.2435821 45.159403 31.2435821 42.080597 27.4710448 42.080597 27.4710448 45.159403 26.8656716 45.159403 26.8656716 38.8059701 27.4710448 38.8059701"></polyline>
                    <polyline id="Fill-15" stroke="#222222" stroke-width="0.2" points="38.4161194 38.8059701 38.4161194 39.3223881 34.6346269 39.3223881 34.6346269 41.6179104 38.1761194 41.6179104 38.1761194 42.1337313 34.6346269 42.1337313 34.6346269 44.6435821 38.4608955 44.6435821 38.4608955 45.159403 34.0298507 45.159403 34.0298507 38.8059701 38.4161194 38.8059701"></polyline>
                    <polyline id="Fill-16" stroke="#222222" stroke-width="0.2" points="40.6764179 38.8059701 44.3779104 44.1808955 44.3952239 44.1808955 44.3952239 38.8059701 45.000597 38.8059701 45.000597 45.159403 44.3241791 45.159403 40.6226866 39.7850746 40.6047761 39.7850746 40.6047761 45.159403 40 45.159403 40 38.8059701 40.6764179 38.8059701"></polyline>
                    <polyline id="Fill-17" stroke="#222222" stroke-width="0.2" points="51.5946269 38.8059701 51.5946269 39.3223881 49.3791045 39.3223881 49.3791045 45.159403 48.7737313 45.159403 48.7737313 39.3223881 46.5671642 39.3223881 46.5671642 38.8059701 51.5946269 38.8059701"></polyline>
                    <polygon id="Fill-18" stroke="#222222" stroke-width="0.2" points="52.5373134 45.159403 53.1426866 45.159403 53.1426866 38.8059701 52.5373134 38.8059701"></polygon>
                    <path d="M59.6107463,40.2071642 C59.4889552,40.0143284 59.3408955,39.8525373 59.1659701,39.7223881 C58.9904478,39.5916418 58.7976119,39.4925373 58.5874627,39.4244776 C58.3761194,39.3558209 58.1552239,39.321791 57.9241791,39.321791 C57.5032836,39.321791 57.1408955,39.401791 56.838209,39.5623881 C56.5361194,39.7223881 56.2883582,39.9343284 56.0955224,40.198209 C55.9026866,40.4620896 55.760597,40.760597 55.6680597,41.0925373 C55.5767164,41.4250746 55.5307463,41.7659701 55.5307463,42.1158209 C55.5307463,42.4602985 55.5767164,42.799403 55.6680597,43.1349254 C55.760597,43.4704478 55.9026866,43.7695522 56.0955224,44.0334328 C56.2883582,44.2973134 56.5361194,44.5098507 56.838209,44.6698507 C57.1408955,44.8298507 57.5032836,44.9098507 57.9241791,44.9098507 C58.2208955,44.9098507 58.4877612,44.8567164 58.7247761,44.7498507 C58.9623881,44.6429851 59.1671642,44.4979104 59.3391045,44.3140299 C59.5110448,44.1301493 59.6501493,43.9152239 59.7576119,43.6686567 C59.8644776,43.4226866 59.9325373,43.1570149 59.9623881,42.8722388 L60.5665672,42.8722388 C60.5253731,43.2638806 60.4340299,43.6167164 60.2907463,43.9313433 C60.1486567,44.2459701 59.9653731,44.5128358 59.7397015,44.7319403 C59.5140299,44.9516418 59.2483582,45.120597 58.9432836,45.239403 C58.6376119,45.358209 58.2979104,45.4173134 57.9241791,45.4173134 C57.4262687,45.4173134 56.9880597,45.3265672 56.6113433,45.1456716 C56.2352239,44.9647761 55.921791,44.7229851 55.6728358,44.4208955 C55.4238806,44.118209 55.2370149,43.7683582 55.1122388,43.3707463 C54.9880597,42.9731343 54.9253731,42.5552239 54.9253731,42.1158209 C54.9253731,41.6770149 54.9880597,41.2585075 55.1122388,40.8608955 C55.2370149,40.4638806 55.4238806,40.1122388 55.6728358,39.8065672 C55.921791,39.5014925 56.2352239,39.2579104 56.6113433,39.0770149 C56.9880597,38.8961194 57.4262687,38.8059701 57.9241791,38.8059701 C58.2262687,38.8059701 58.521791,38.8501493 58.8095522,38.9391045 C59.0973134,39.0280597 59.358209,39.16 59.5928358,39.3349254 C59.8268657,39.5104478 60.0226866,39.7253731 60.1802985,39.9802985 C60.3373134,40.2358209 60.4370149,40.5289552 60.478209,40.8608955 L59.8728358,40.8608955 C59.8191045,40.6179104 59.7319403,40.4 59.6107463,40.2071642" id="Fill-19" stroke="#222222" stroke-width="0.2"></path>
                    <path d="M65.5862687,42.6680597 L64.358209,39.4113433 L63.0853731,42.6680597 L65.5862687,42.6680597 L65.5862687,42.6680597 Z M64.7229851,38.8059701 L67.2143284,45.159403 L66.5647761,45.159403 L65.7904478,43.1838806 L62.8991045,43.1838806 L62.1337313,45.159403 L61.4925373,45.159403 L64.0471642,38.8059701 L64.7229851,38.8059701 L64.7229851,38.8059701 Z" id="Fill-20" stroke="#222222" stroke-width="0.2"></path>
                    <polyline id="Fill-21" stroke="#222222" stroke-width="0.2" points="71.8931343 38.8059701 71.8931343 39.3223881 69.6776119 39.3223881 69.6776119 45.159403 69.0722388 45.159403 69.0722388 39.3223881 66.8656716 39.3223881 66.8656716 38.8059701 71.8931343 38.8059701"></polyline>
                    <polyline id="Fill-22" stroke="#222222" stroke-width="0.2" points="77.8191045 38.8059701 77.8191045 39.3223881 74.0376119 39.3223881 74.0376119 41.6179104 77.5791045 41.6179104 77.5791045 42.1337313 74.0376119 42.1337313 74.0376119 44.6435821 77.8644776 44.6435821 77.8644776 45.159403 73.4328358 45.159403 73.4328358 38.8059701 77.8191045 38.8059701"></polyline>
                    <path d="M81.2985075,44.6435821 C81.7546269,44.6435821 82.1474627,44.5946269 82.4770149,44.4967164 C82.8065672,44.398806 83.0776119,44.2429851 83.2913433,44.0292537 C83.5050746,43.8161194 83.6620896,43.5397015 83.7635821,43.201791 C83.8632836,42.8638806 83.9140299,42.4573134 83.9140299,41.9826866 C83.9140299,41.5086567 83.8632836,41.1020896 83.7635821,40.7635821 C83.6620896,40.4256716 83.5050746,40.1498507 83.2913433,39.9361194 C83.0776119,39.7223881 82.8065672,39.5671642 82.4770149,39.4692537 C82.1474627,39.3707463 81.7546269,39.3223881 81.2985075,39.3223881 L80.0077612,39.3223881 L80.0077612,44.6435821 L81.2985075,44.6435821 L81.2985075,44.6435821 Z M81.600597,38.8059701 C82.5677612,38.8298507 83.2955224,39.1014925 83.7856716,39.6202985 C84.2746269,40.1397015 84.519403,40.9271642 84.519403,41.9826866 C84.519403,43.038806 84.2746269,43.8262687 83.7856716,44.3450746 C83.2955224,44.8644776 82.5677612,45.1361194 81.600597,45.159403 L79.4029851,45.159403 L79.4029851,38.8059701 L81.600597,38.8059701 L81.600597,38.8059701 Z" id="Fill-23" stroke="#222222" stroke-width="0.2"></path>
                    <polyline id="Fill-24" stroke="#222222" stroke-width="0.2" points="90.7546269 38.8059701 90.7546269 44.6435821 94.3140299 44.6435821 94.3140299 45.159403 90.1492537 45.159403 90.1492537 38.8059701 90.7546269 38.8059701"></polyline>
                    <path d="M96.1277612,38.8059701 L96.1277612,42.7391045 C96.1277612,43.1068657 96.1689552,43.4197015 96.2525373,43.678209 C96.3349254,43.9361194 96.4567164,44.1462687 96.6167164,44.3098507 C96.7767164,44.4728358 96.9731343,44.5916418 97.2041791,44.6656716 C97.4358209,44.7402985 97.6967164,44.7767164 97.9874627,44.7767164 C98.2835821,44.7767164 98.5474627,44.7402985 98.7791045,44.6656716 C99.0107463,44.5916418 99.2065672,44.4728358 99.3659701,44.3098507 C99.5265672,44.1462687 99.6483582,43.9361194 99.7313433,43.678209 C99.8143284,43.4197015 99.8561194,43.1068657 99.8561194,42.7391045 L99.8561194,38.8059701 L100.460896,38.8059701 L100.460896,42.8728358 C100.460896,43.198806 100.414925,43.5092537 100.322985,43.8023881 C100.231045,44.0961194 100.085373,44.3528358 99.8865672,44.5719403 C99.6877612,44.7916418 99.4334328,44.9653731 99.121791,45.0925373 C98.8107463,45.2202985 98.4322388,45.2841791 97.9874627,45.2841791 C97.5480597,45.2841791 97.1731343,45.2202985 96.8614925,45.0925373 C96.5504478,44.9653731 96.2949254,44.7916418 96.0967164,44.5719403 C95.8973134,44.3528358 95.7522388,44.0961194 95.6602985,43.8023881 C95.5683582,43.5092537 95.5223881,43.198806 95.5223881,42.8728358 L95.5223881,38.8059701 L96.1277612,38.8059701" id="Fill-25" stroke="#222222" stroke-width="0.2"></path>
                    <polyline id="Fill-26" stroke="#222222" stroke-width="0.2" points="102.329552 38.8059701 104.126567 41.4668657 105.986866 38.8059701 106.662687 38.8059701 104.49194 41.9026866 106.786866 45.159403 106.05791 45.159403 104.126567 42.3564179 102.168955 45.159403 101.492537 45.159403 103.770746 41.8847761 101.617313 38.8059701 102.329552 38.8059701"></polyline>
                    <path d="M108.665075,38.8059701 L108.665075,42.7391045 C108.665075,43.1068657 108.706269,43.4197015 108.789851,43.678209 C108.872239,43.9361194 108.99403,44.1462687 109.15403,44.3098507 C109.31403,44.4728358 109.510448,44.5916418 109.741493,44.6656716 C109.973134,44.7402985 110.233433,44.7767164 110.524776,44.7767164 C110.820896,44.7767164 111.084776,44.7402985 111.316418,44.6656716 C111.54806,44.5916418 111.743881,44.4728358 111.903284,44.3098507 C112.063881,44.1462687 112.185672,43.9361194 112.268657,43.678209 C112.351642,43.4197015 112.393433,43.1068657 112.393433,42.7391045 L112.393433,38.8059701 L112.998209,38.8059701 L112.998209,42.8728358 C112.998209,43.198806 112.952239,43.5092537 112.860299,43.8023881 C112.768358,44.0961194 112.622687,44.3528358 112.423881,44.5719403 C112.225075,44.7916418 111.970746,44.9653731 111.659104,45.0925373 C111.34806,45.2202985 110.969552,45.2841791 110.524776,45.2841791 C110.085373,45.2841791 109.710448,45.2202985 109.398806,45.0925373 C109.087761,44.9653731 108.832239,44.7916418 108.63403,44.5719403 C108.434627,44.3528358 108.289552,44.0961194 108.197612,43.8023881 C108.105672,43.5092537 108.059701,43.198806 108.059701,42.8728358 L108.059701,38.8059701 L108.665075,38.8059701" id="Fill-27" stroke="#222222" stroke-width="0.2"></path>
                    <path d="M117.491343,41.8226866 C117.675821,41.8226866 117.850746,41.7946269 118.016716,41.7379104 C118.183284,41.681791 118.328358,41.6 118.453134,41.4937313 C118.577313,41.3862687 118.677015,41.2579104 118.751045,41.1062687 C118.825075,40.9552239 118.86209,40.7814925 118.86209,40.5856716 C118.86209,40.1940299 118.749254,39.8859701 118.524179,39.6602985 C118.298507,39.4346269 117.954627,39.3223881 117.491343,39.3223881 L115.231642,39.3223881 L115.231642,41.8226866 L117.491343,41.8226866 L117.491343,41.8226866 Z M117.536716,38.8059701 C117.797015,38.8059701 118.044776,38.838806 118.279403,38.9038806 C118.513433,38.9695522 118.718209,39.0686567 118.893134,39.201791 C119.06806,39.3355224 119.207761,39.5074627 119.311642,39.718209 C119.415522,39.9289552 119.467463,40.1767164 119.467463,40.4614925 C119.467463,40.8644776 119.363582,41.2143284 119.155821,41.5110448 C118.94806,41.8077612 118.639403,41.9976119 118.230448,42.080597 L118.230448,42.0985075 C118.437612,42.1283582 118.609552,42.1826866 118.746269,42.2632836 C118.882388,42.3432836 118.99403,42.4453731 119.08,42.5701493 C119.16597,42.6949254 119.228657,42.838806 119.266866,43.001791 C119.305075,43.1647761 119.330746,43.3414925 119.342687,43.5313433 C119.348657,43.6376119 119.35403,43.7683582 119.360597,43.9223881 C119.366567,44.0770149 119.378507,44.2328358 119.396418,44.3898507 C119.413731,44.5468657 119.441791,44.6955224 119.480597,44.8346269 C119.519403,44.9743284 119.571343,45.0823881 119.636418,45.159403 L118.968955,45.159403 C118.933134,45.1002985 118.905672,45.0274627 118.884179,44.9414925 C118.863284,44.8555224 118.848955,44.7665672 118.84,44.6746269 C118.831045,44.5826866 118.823881,44.4925373 118.81791,44.4029851 C118.811343,44.3140299 118.80597,44.2370149 118.8,44.1719403 C118.78806,43.9468657 118.768955,43.7223881 118.74209,43.4997015 C118.715224,43.2776119 118.658507,43.078806 118.573134,42.9038806 C118.486567,42.7289552 118.362388,42.5880597 118.199403,42.481194 C118.035821,42.3743284 117.81194,42.3271642 117.527761,42.3391045 L115.231642,42.3391045 L115.231642,45.159403 L114.626866,45.159403 L114.626866,38.8059701 L117.536716,38.8059701 L117.536716,38.8059701 Z" id="Fill-28" stroke="#222222" stroke-width="0.2"></path>
                    <polyline id="Fill-29" stroke="#222222" stroke-width="0.2" points="120.597015 38.8059701 121.308657 38.8059701 123.399403 42.0274627 125.481791 38.8059701 126.202388 38.8059701 123.693134 42.5432836 123.693134 45.159403 123.088358 45.159403 123.088358 42.5432836 120.597015 38.8059701"></polyline>
                    <path d="M134.237015,40.2071642 C134.115224,40.0143284 133.967164,39.8525373 133.792239,39.7223881 C133.616716,39.5916418 133.424478,39.4925373 133.213731,39.4244776 C133.002985,39.3558209 132.78209,39.321791 132.550448,39.321791 C132.129552,39.321791 131.767761,39.401791 131.465075,39.5623881 C131.162985,39.7223881 130.915224,39.9343284 130.722388,40.198209 C130.528955,40.4620896 130.386866,40.760597 130.294925,41.0925373 C130.202985,41.4250746 130.157015,41.7659701 130.157015,42.1158209 C130.157015,42.4602985 130.202985,42.799403 130.294925,43.1349254 C130.386866,43.4704478 130.528955,43.7695522 130.722388,44.0334328 C130.915224,44.2973134 131.162985,44.5098507 131.465075,44.6698507 C131.767761,44.8298507 132.129552,44.9098507 132.550448,44.9098507 C132.847164,44.9098507 133.11403,44.8567164 133.351642,44.7498507 C133.588657,44.6429851 133.793433,44.4979104 133.965373,44.3140299 C134.137313,44.1301493 134.277015,43.9152239 134.383881,43.6686567 C134.490746,43.4226866 134.558806,43.1570149 134.588657,42.8722388 L135.193433,42.8722388 C135.151642,43.2638806 135.060299,43.6167164 134.917612,43.9313433 C134.775522,44.2459701 134.591642,44.5128358 134.36597,44.7319403 C134.140299,44.9516418 133.875224,45.120597 133.569552,45.239403 C133.263881,45.358209 132.924179,45.4173134 132.550448,45.4173134 C132.052537,45.4173134 131.614925,45.3265672 131.238209,45.1456716 C130.861493,44.9647761 130.548657,44.7229851 130.299701,44.4208955 C130.050746,44.118209 129.863284,43.7683582 129.738507,43.3707463 C129.614328,42.9731343 129.552239,42.5552239 129.552239,42.1158209 C129.552239,41.6770149 129.614328,41.2585075 129.738507,40.8608955 C129.863284,40.4638806 130.050746,40.1122388 130.299701,39.8065672 C130.548657,39.5014925 130.861493,39.2579104 131.238209,39.0770149 C131.614925,38.8961194 132.052537,38.8059701 132.550448,38.8059701 C132.853134,38.8059701 133.14806,38.8501493 133.435821,38.9391045 C133.724179,39.0280597 133.984478,39.16 134.219104,39.3349254 C134.453731,39.5104478 134.649552,39.7253731 134.806567,39.9802985 C134.963582,40.2358209 135.063284,40.5289552 135.104478,40.8608955 L134.499701,40.8608955 C134.44597,40.6179104 134.358209,40.4 134.237015,40.2071642" id="Fill-30" stroke="#222222" stroke-width="0.2"></path>
                    <path d="M136.86209,43.1349254 C136.954627,43.4704478 137.096716,43.7695522 137.289552,44.0334328 C137.482388,44.2973134 137.730149,44.5098507 138.032239,44.6698507 C138.334925,44.8298507 138.697313,44.9098507 139.118209,44.9098507 C139.539701,44.9098507 139.899701,44.8298507 140.199403,44.6698507 C140.498507,44.5098507 140.745075,44.2973134 140.938507,44.0334328 C141.130746,43.7695522 141.272836,43.4704478 141.364776,43.1349254 C141.457313,42.799403 141.503284,42.4602985 141.503284,42.1158209 C141.503284,41.7659701 141.457313,41.4250746 141.364776,41.0925373 C141.272836,40.760597 141.130746,40.4620896 140.938507,40.198209 C140.745075,39.9343284 140.498507,39.7223881 140.199403,39.5623881 C139.899701,39.401791 139.539701,39.321791 139.118209,39.321791 C138.697313,39.321791 138.334925,39.401791 138.032239,39.5623881 C137.730149,39.7223881 137.482388,39.9343284 137.289552,40.198209 C137.096716,40.4620896 136.954627,40.760597 136.86209,41.0925373 C136.770149,41.4250746 136.724776,41.7659701 136.724776,42.1158209 C136.724776,42.4602985 136.770149,42.799403 136.86209,43.1349254 L136.86209,43.1349254 Z M136.306269,40.8608955 C136.431045,40.4638806 136.61791,40.1122388 136.866866,39.8065672 C137.115821,39.5014925 137.429254,39.2579104 137.80597,39.0770149 C138.18209,38.8961194 138.620299,38.8059701 139.118209,38.8059701 C139.616716,38.8059701 140.052537,38.8961194 140.426269,39.0770149 C140.8,39.2579104 141.111642,39.5014925 141.361194,39.8065672 C141.610149,40.1122388 141.796418,40.4638806 141.921194,40.8608955 C142.04597,41.2585075 142.108657,41.6770149 142.108657,42.1158209 C142.108657,42.5552239 142.04597,42.9731343 141.921194,43.3707463 C141.796418,43.7683582 141.610149,44.118209 141.361194,44.4208955 C141.111642,44.7229851 140.8,44.9647761 140.426269,45.1456716 C140.052537,45.3265672 139.616716,45.4173134 139.118209,45.4173134 C138.620299,45.4173134 138.18209,45.3265672 137.80597,45.1456716 C137.429254,44.9647761 137.115821,44.7229851 136.866866,44.4208955 C136.61791,44.118209 136.431045,43.7683582 136.306269,43.3707463 C136.18209,42.9731343 136.119403,42.5552239 136.119403,42.1158209 C136.119403,41.6770149 136.18209,41.2585075 136.306269,40.8608955 L136.306269,40.8608955 Z" id="Fill-31" stroke="#222222" stroke-width="0.2"></path>
                    <polyline id="Fill-32" stroke="#222222" stroke-width="0.2" points="144.557015 38.8059701 148.258507 44.1808955 148.276418 44.1808955 148.276418 38.8059701 148.881194 38.8059701 148.881194 45.159403 148.204776 45.159403 144.503284 39.7850746 144.485373 39.7850746 144.485373 45.159403 143.880597 45.159403 143.880597 38.8059701 144.557015 38.8059701"></polyline>
                    <path d="M151.208021,44.0202985 C151.31429,44.24 151.461156,44.4149254 151.648021,44.5450746 C151.834887,44.6758209 152.056379,44.7689552 152.310708,44.8256716 C152.56623,44.881791 152.839066,44.9098507 153.129215,44.9098507 C153.295782,44.9098507 153.476678,44.8865672 153.673096,44.838806 C153.86832,44.7916418 154.050409,44.7158209 154.219962,44.6119403 C154.388917,44.5080597 154.529812,44.3749254 154.642648,44.2113433 C154.754887,44.0483582 154.811603,43.8513433 154.811603,43.6197015 C154.811603,43.441791 154.771006,43.2877612 154.691603,43.1570149 C154.611603,43.0268657 154.507723,42.9170149 154.379962,42.8280597 C154.2522,42.7385075 154.111305,42.6662687 153.957275,42.6101493 C153.802648,42.5534328 153.651603,42.5074627 153.503544,42.4722388 L152.088618,42.1247761 C151.904738,42.0776119 151.725036,42.0179104 151.550111,41.9468657 C151.375185,41.8758209 151.22235,41.7808955 151.091603,41.6620896 C150.961454,41.5432836 150.856379,41.398209 150.776379,41.2262687 C150.695782,41.0543284 150.655782,40.8435821 150.655782,40.5946269 C150.655782,40.44 150.685633,40.2591045 150.744738,40.0513433 C150.804439,39.8441791 150.914887,39.6483582 151.078469,39.4644776 C151.241454,39.28 151.465335,39.1247761 151.750708,38.9970149 C152.034887,38.8692537 152.40026,38.8059701 152.845036,38.8059701 C153.159066,38.8059701 153.458767,38.8471642 153.744141,38.9307463 C154.02832,39.0137313 154.277275,39.1379104 154.491603,39.3038806 C154.704738,39.4704478 154.874887,39.6764179 155.002648,39.9223881 C155.130409,40.1689552 155.193693,40.4549254 155.193693,40.7814925 L154.589514,40.7814925 C154.576976,40.5379104 154.522051,40.3259701 154.424141,40.1450746 C154.32623,39.9641791 154.198469,39.8131343 154.042051,39.6907463 C153.884439,39.5695522 153.703544,39.4776119 153.499365,39.4155224 C153.294588,39.3528358 153.079066,39.321791 152.853394,39.321791 C152.64623,39.321791 152.44623,39.3438806 152.253394,39.3886567 C152.059962,39.4328358 151.891006,39.5038806 151.745932,39.6023881 C151.600857,39.7002985 151.483842,39.8292537 151.39429,39.9892537 C151.305932,40.1492537 151.261156,40.3486567 151.261156,40.5850746 C151.261156,40.7337313 151.28623,40.8626866 151.336379,40.9725373 C151.386529,41.0823881 151.456976,41.1755224 151.545932,41.2531343 C151.634887,41.3301493 151.736976,41.3922388 151.852797,41.44 C151.968618,41.4871642 152.091603,41.5259701 152.22235,41.5552239 L153.770409,41.9379104 C153.996081,41.9976119 154.208021,42.0698507 154.406827,42.1558209 C154.605036,42.241791 154.780559,42.3486567 154.931603,42.4764179 C155.083245,42.6041791 155.201454,42.76 155.288021,42.9432836 C155.373394,43.1271642 155.416379,43.3498507 155.416379,43.6107463 C155.416379,43.681791 155.409215,43.7773134 155.39429,43.8955224 C155.379365,44.0143284 155.343544,44.1402985 155.288021,44.2740299 C155.231305,44.4071642 155.150708,44.5420896 155.047424,44.678806 C154.943544,44.8149254 154.800857,44.9385075 154.620559,45.0483582 C154.439066,45.1576119 154.215782,45.2471642 153.948917,45.3146269 C153.681454,45.3832836 153.360857,45.4173134 152.987126,45.4173134 C152.613394,45.4173134 152.266529,45.3737313 151.946529,45.2883582 C151.625932,45.2023881 151.353096,45.0704478 151.127424,44.8919403 C150.90235,44.7146269 150.728618,44.4859701 150.607424,44.2071642 C150.485633,43.9283582 150.433693,43.5934328 150.451006,43.201791 L151.056379,43.201791 C151.050409,43.5277612 151.101156,43.800597 151.208021,44.0202985" id="Fill-33" stroke="#222222" stroke-width="0.2"></path>
                    <polygon id="Fill-34" stroke="#222222" stroke-width="0.2" points="157.014925 45.159403 157.620299 45.159403 157.620299 38.8059701 157.014925 38.8059701"></polygon>
                    <path d="M164.697313,45.2925373 L164.617313,44.1361194 L164.599403,44.1361194 C164.492537,44.361194 164.361194,44.5558209 164.203582,44.718806 C164.04597,44.881791 163.872836,45.0155224 163.682985,45.119403 C163.493731,45.2232836 163.290149,45.2985075 163.073433,45.3462687 C162.856716,45.3934328 162.632836,45.4173134 162.401194,45.4173134 C161.903284,45.4173134 161.465672,45.3265672 161.088955,45.1456716 C160.712239,44.9647761 160.399403,44.7229851 160.150448,44.4208955 C159.901493,44.118209 159.71403,43.7683582 159.589254,43.3707463 C159.465075,42.9731343 159.402985,42.5552239 159.402985,42.1158209 C159.402985,41.6770149 159.465075,41.2585075 159.589254,40.8608955 C159.71403,40.4638806 159.901493,40.1122388 160.150448,39.8065672 C160.399403,39.5014925 160.712239,39.2579104 161.088955,39.0770149 C161.465672,38.8961194 161.903284,38.8059701 162.401194,38.8059701 C162.733731,38.8059701 163.047761,38.8501493 163.345075,38.9391045 C163.641791,39.0280597 163.905672,39.161791 164.137313,39.3397015 C164.367761,39.5176119 164.564179,39.7373134 164.724179,39.998209 C164.884776,40.2591045 164.99403,40.5647761 165.053731,40.9146269 L164.448358,40.9146269 C164.430448,40.7307463 164.369552,40.5456716 164.265672,40.358806 C164.162388,40.1719403 164.022687,40.001194 163.847761,39.8471642 C163.672239,39.6925373 163.463881,39.5665672 163.220896,39.4686567 C162.976716,39.3707463 162.703881,39.321791 162.401194,39.321791 C161.980299,39.321791 161.618507,39.401791 161.315821,39.5623881 C161.013731,39.7223881 160.76597,39.9343284 160.573134,40.198209 C160.380299,40.4620896 160.237612,40.760597 160.145672,41.0925373 C160.054328,41.4250746 160.008358,41.7659701 160.008358,42.1158209 C160.008358,42.4602985 160.054328,42.799403 160.145672,43.1349254 C160.237612,43.4704478 160.380299,43.7695522 160.573134,44.0334328 C160.76597,44.2973134 161.013731,44.5098507 161.315821,44.6698507 C161.618507,44.8298507 161.980299,44.9098507 162.401194,44.9098507 C162.751642,44.9098507 163.065075,44.8519403 163.340896,44.7367164 C163.616716,44.6208955 163.848955,44.4591045 164.039403,44.2519403 C164.228657,44.0435821 164.371343,43.7976119 164.465672,43.5128358 C164.561194,43.2280597 164.605373,42.9170149 164.599403,42.5785075 L162.437612,42.5785075 L162.437612,42.0626866 L165.133731,42.0626866 L165.133731,45.2925373 L164.697313,45.2925373" id="Fill-35" stroke="#222222" stroke-width="0.2"></path>
                    <polyline id="Fill-36" stroke="#222222" stroke-width="0.2" points="167.840597 38.8059701 171.54209 44.1808955 171.56 44.1808955 171.56 38.8059701 172.164776 38.8059701 172.164776 45.159403 171.488358 45.159403 167.786866 39.7850746 167.768955 39.7850746 167.768955 45.159403 167.164179 45.159403 167.164179 38.8059701 167.840597 38.8059701"></polyline>
                    <polyline id="Fill-37" stroke="#222222" stroke-width="0.2" points="174.621493 38.8059701 176.730149 44.3767164 178.918806 38.8059701 179.809552 38.8059701 179.809552 45.159403 179.204179 45.159403 179.204179 39.6692537 179.186269 39.6692537 177.014925 45.159403 176.445373 45.159403 174.354627 39.6692537 174.336716 39.6692537 174.336716 45.159403 173.731343 45.159403 173.731343 38.8059701 174.621493 38.8059701"></polyline>
                    <polyline id="Fill-38" stroke="#222222" stroke-width="0.2" points="186.475821 38.8059701 186.475821 39.3223881 182.694328 39.3223881 182.694328 41.6179104 186.235821 41.6179104 186.235821 42.1337313 182.694328 42.1337313 182.694328 44.6435821 186.521194 44.6435821 186.521194 45.159403 182.089552 45.159403 182.089552 38.8059701 186.475821 38.8059701"></polyline>
                    <polyline id="Fill-39" stroke="#222222" stroke-width="0.2" points="188.736119 38.8059701 192.437612 44.1808955 192.454925 44.1808955 192.454925 38.8059701 193.060299 38.8059701 193.060299 45.159403 192.383881 45.159403 188.682388 39.7850746 188.664478 39.7850746 188.664478 45.159403 188.059701 45.159403 188.059701 38.8059701 188.736119 38.8059701"></polyline>
                    <polyline id="Fill-40" stroke="#222222" stroke-width="0.2" points="199.057313 38.8059701 199.057313 39.3223881 196.841791 39.3223881 196.841791 45.159403 196.237015 45.159403 196.237015 39.3223881 194.029851 39.3223881 194.029851 38.8059701 199.057313 38.8059701"></polyline>
                </g>
            </g>
        </g>
    </g>
</svg>
